<?xml version="1.0" encoding="UTF-8"?><svg id="Layer_1" xmlns="http://www.w3.org/2000/svg" viewBox="0 0 1395.95 1395.04"><path d="M1395.95,697.61c.48,386.82-310.05,696.74-698.77,697.43C309.73,1395.72,.09,1083.41,0,691.87-.08,311.67,313.56,.41,697.16,0c387.32-.42,698.31,310.05,698.78,697.61Zm-499.7,428.56c85.35,.78,156.79-50.01,178.19-126.69,23.02-82.46-9.2-167.59-89.9-204.31-59.8-27.22-103.77-66.51-146.23-114.49-74.96-84.71-205.81-84.7-280.25-.03-42.32,48.13-86.46,87.26-146.18,114.49-79.48,36.23-112.73,121.17-91.07,200.8,21.96,80.77,95.42,132.8,183.37,130.15,31.11-.94,61.09-7.25,91.08-15.38,68.51-18.57,137.56-18.47,206.06,.02,31.26,8.44,62.41,15.67,94.93,15.45Zm-250.85-682.38c.25-52.51-15.91-99.2-52.91-136.86-59.29-60.35-144.58-48.14-184,26.78-30.25,57.5-28.04,116.81-.83,174.92,28.12,60.05,82.13,93.07,134.09,83.89,54.25-9.58,95.51-60.08,102.4-125.52,.81-7.68,.9-15.43,1.26-23.2Zm363.42-24.79c.72-33.2-7.72-64.05-24.67-92.2-39.79-66.1-117.63-77.07-174.96-25.19-62.71,56.74-77.42,167.24-31.67,237.85,40.35,62.27,114.09,73.09,169.75,24.13,43.42-38.2,60.69-88.09,61.56-144.59Zm211.61,222.23c-1.41-46.48-14.47-84.08-57.19-103.85-36.09-16.7-81.66-4.11-114.71,31.8-39.04,42.44-55,92.4-40.08,149.15,16.34,62.13,76.94,87.9,133.15,56.76,53.18-29.46,74.91-78.11,78.83-133.86Zm-1044.73-2.47c.69,55.34,31.25,109.73,75.84,134.98,59.03,33.42,122.17,6.41,137.28-59.62,13.1-57.27-3.59-107.13-44.33-147.85-30.78-30.77-67.73-46.7-111.91-28.65-35.27,14.41-57.46,54.45-56.87,101.14Z"/></svg>